<svg width="279" height="347" viewBox="0 0 279 347" fill="none" xmlns="http://www.w3.org/2000/svg">
<path d="M269.459 78.1798L35.0559 213.643C35.0559 179.597 35.0559 145.551 35.0559 111.505C64.7614 94.3922 94.4668 77.0988 124.172 59.9857V91.1496C103.468 103.219 82.5846 115.108 61.8808 127.177C61.8808 140.507 61.8808 153.837 61.8808 167.168C114.991 136.544 168.1 105.741 221.21 75.1173C221.21 61.7871 221.21 48.457 221.21 35.1268C200.506 47.1961 179.622 59.0852 158.919 71.1544V20.7158C158.919 13.8706 158.919 6.84523 158.919 0C105.989 30.4433 53.2393 61.0665 0.30957 91.5098C0.30957 152.216 0.30957 212.923 0.30957 273.629C6.07063 270.207 11.8316 266.964 17.5927 263.541C93.0265 219.948 168.28 176.535 243.714 132.941C243.714 166.987 243.714 201.034 243.714 235.08C214.009 252.193 184.303 269.486 154.598 286.599V255.435C175.302 243.366 196.185 231.477 216.889 219.408C216.889 206.077 216.889 192.747 216.889 179.417C163.779 210.04 110.67 240.844 57.56 271.467C57.56 284.798 57.56 298.128 57.56 311.458C78.2638 299.389 99.1477 287.5 119.851 275.431V325.869C119.851 332.714 119.851 339.74 119.851 346.585C172.781 316.142 225.531 285.518 278.461 255.075C278.461 194.368 278.461 133.662 278.461 72.9558C275.58 74.7571 272.519 76.5586 269.459 78.1798Z" fill="#FF4800"/>
</svg>
